<svg width="21" height="21" viewBox="0 0 21 21" fill="none" xmlns="http://www.w3.org/2000/svg">
<path fill-rule="evenodd" clip-rule="evenodd" d="M1.9207 0.521362C1.19497 0.521362 0.602539 1.12066 0.602539 1.85545V19.813C0.602539 20.3398 1.19497 20.6415 1.61188 20.3237L6.88761 16.2901H19.4825C20.2128 16.2901 20.7996 15.6966 20.7996 14.9566V1.85545C20.7996 1.12066 20.2128 0.521362 19.4825 0.521362H1.9207ZM8.85352 4.23122C8.85352 3.54906 9.40425 2.99146 10.0842 2.99146C10.7584 2.99146 11.3087 3.54906 11.3087 4.23122C11.3087 4.9191 10.7584 5.47671 10.0842 5.47671C9.40425 5.47671 8.85352 4.9191 8.85352 4.23122ZM8.51872 6.85774H11.6898V11.8293H13.4959V13.8257H7.90673V11.8293H9.71849V8.85418H8.51872V6.85774Z" fill="url(#paint0_linear_45_6455)"/>
<defs>
<linearGradient id="paint0_linear_45_6455" x1="0.60284" y1="20.4536" x2="20.7999" y2="20.4536" gradientUnits="userSpaceOnUse">
<stop stop-color="#FF7200"/>
<stop offset="1" stop-color="#FB9500"/>
</linearGradient>
</defs>
</svg>
