<svg width="16" height="18" viewBox="0 0 16 18" fill="none" xmlns="http://www.w3.org/2000/svg">
<path fill-rule="evenodd" clip-rule="evenodd" d="M15.1112 5.41506L9.77787 0.686717C8.76561 -0.228906 7.2346 -0.228906 6.22234 0.686717L0.889047 5.41506C0.31789 5.93164 -0.0059271 6.67174 0.000163949 7.44663V15.3032C0.000163949 16.7926 1.19406 18 2.66681 18H13.3334C14.8062 18 16.0001 16.7926 16.0001 15.3032V7.43764C16.0036 6.66588 15.68 5.92956 15.1112 5.41506ZM9.77787 16.2021H6.22234V11.7075C6.22234 11.2111 6.62031 10.8086 7.11122 10.8086H8.88899C9.37991 10.8086 9.77787 11.2111 9.77787 11.7075V16.2021ZM13.3334 16.2022C13.8243 16.2022 14.2223 15.7997 14.2223 15.3032V7.43764C14.222 7.17944 14.1119 6.93386 13.9201 6.76345L8.58677 2.04409C8.25121 1.74597 7.749 1.74597 7.41344 2.04409L2.08014 6.76345C1.88834 6.93386 1.77825 7.17944 1.77792 7.43764V15.3032C1.77792 15.7997 2.17589 16.2022 2.66681 16.2022H4.44457V11.7075C4.44457 10.2181 5.63847 9.01076 7.11122 9.01076H8.88899C10.3617 9.01076 11.5556 10.2181 11.5556 11.7075V16.2022H13.3334Z" fill="white"/>
</svg>
