<svg width="22" height="22" viewBox="0 0 22 22" fill="none" xmlns="http://www.w3.org/2000/svg">
<mask id="mask0_11_8914" style="mask-type:alpha" maskUnits="userSpaceOnUse" x="0" y="0" width="22" height="22">
<path fill-rule="evenodd" clip-rule="evenodd" d="M0.629883 0.716309H21.495V21.5817H0.629883V0.716309Z" fill="white"/>
</mask>
<g mask="url(#mask0_11_8914)">
<path fill-rule="evenodd" clip-rule="evenodd" d="M11.0626 0.716309C8.22906 0.716309 7.8733 0.728828 6.76118 0.778905C5.65114 0.830025 4.89164 1.00634 4.22812 1.26402C3.54269 1.5311 2.96055 1.8879 2.38049 2.46691C1.80043 3.04697 1.44363 3.62912 1.17656 4.31559C0.918868 4.97911 0.742556 5.73652 0.692479 6.8476C0.642402 7.96077 0.629883 8.31548 0.629883 11.149C0.629883 13.9825 0.642402 14.3383 0.692479 15.4504C0.742556 16.5615 0.918868 17.3189 1.17656 17.9835C1.44363 18.6689 1.80043 19.251 2.38049 19.83C2.96055 20.4111 3.54269 20.7679 4.22812 21.034C4.89164 21.2927 5.65114 21.469 6.76118 21.5181C7.8733 21.5692 8.22906 21.5817 11.0626 21.5817C13.8961 21.5817 14.2508 21.5692 15.364 21.5181C16.474 21.469 17.2325 21.2927 17.896 21.034C18.5825 20.7679 19.1646 20.4111 19.7436 19.83C20.3237 19.251 20.6805 18.6689 20.9475 17.9835C21.2052 17.3189 21.3815 16.5615 21.4316 15.4504C21.4827 14.3383 21.4953 13.9825 21.4953 11.149C21.4953 8.31548 21.4827 7.96077 21.4316 6.8476C21.3815 5.73652 21.2052 4.97911 20.9475 4.31559C20.6805 3.62912 20.3237 3.04697 19.7436 2.46691C19.1646 1.8879 18.5825 1.5311 17.896 1.26402C17.2325 1.00634 16.474 0.830025 15.364 0.778905C14.2508 0.728828 13.8961 0.716309 11.0626 0.716309ZM11.0625 2.59619C13.848 2.59619 14.1777 2.60662 15.2783 2.6567C16.2955 2.70365 16.8474 2.87266 17.2146 3.01663C17.7019 3.20546 18.0493 3.43185 18.4144 3.79699C18.7796 4.1611 19.0059 4.50955 19.1948 4.99571C19.3387 5.36399 19.5078 5.91587 19.5547 6.93306C19.6048 8.03371 19.6152 8.36338 19.6152 11.1489C19.6152 13.9344 19.6048 14.2641 19.5547 15.3648C19.5078 16.382 19.3387 16.9338 19.1948 17.3011C19.0059 17.7883 18.7796 18.1357 18.4144 18.5019C18.0493 18.866 17.7019 19.0924 17.2146 19.2822C16.8474 19.4252 16.2955 19.5952 15.2783 19.6411C14.1777 19.6912 13.848 19.7016 11.0625 19.7016C8.27591 19.7016 7.94729 19.6912 6.84664 19.6411C5.82945 19.5952 5.27652 19.4252 4.90929 19.2822C4.42208 19.0924 4.07467 18.866 3.70953 18.5019C3.34542 18.1357 3.11904 17.7883 2.92916 17.3011C2.78623 16.9338 2.61618 16.382 2.56923 15.3648C2.5202 14.2641 2.50977 13.9344 2.50977 11.1489C2.50977 8.36338 2.5202 8.03371 2.56923 6.93306C2.61618 5.91587 2.78623 5.36399 2.92916 4.99571C3.11904 4.50955 3.34542 4.1611 3.70953 3.79699C4.07467 3.43185 4.42208 3.20546 4.90929 3.01663C5.27652 2.87266 5.82945 2.70365 6.84664 2.6567C7.94729 2.60662 8.27696 2.59619 11.0625 2.59619Z" fill="white"/>
</g>
<path fill-rule="evenodd" clip-rule="evenodd" d="M11.0623 14.6262C9.14167 14.6262 7.58407 13.0696 7.58407 11.1489C7.58407 9.22828 9.14167 7.67068 11.0623 7.67068C12.983 7.67068 14.5395 9.22828 14.5395 11.1489C14.5395 13.0696 12.983 14.6262 11.0623 14.6262ZM11.0623 5.79175C8.10362 5.79175 5.7041 8.19022 5.7041 11.1489C5.7041 14.1076 8.10362 16.5061 11.0623 16.5061C14.021 16.5061 16.4195 14.1076 16.4195 11.1489C16.4195 8.19022 14.021 5.79175 11.0623 5.79175Z" fill="white"/>
<path fill-rule="evenodd" clip-rule="evenodd" d="M17.8837 5.58005C17.8837 6.27174 17.3235 6.83197 16.6318 6.83197C15.9401 6.83197 15.3799 6.27174 15.3799 5.58005C15.3799 4.88836 15.9401 4.32812 16.6318 4.32812C17.3235 4.32812 17.8837 4.88836 17.8837 5.58005Z" fill="white"/>
</svg>
