<svg width="27" height="22" viewBox="0 0 27 22" fill="none" xmlns="http://www.w3.org/2000/svg">
<path d="M17.0526 21.0312C23.3684 19.4509 27 15.1838 27 9.02035C27 4.27921 25.1053 0.0121781 21 0.0121777C18.4737 0.0121775 16.4211 2.06667 16.4211 4.43725C16.4211 10.2847 22.7368 7.91408 22.7368 12.8133C22.7368 16.6062 20.3684 18.5026 17.0526 19.1348L17.0526 21.0312ZM0.789473 21.0312C7.10526 19.4509 10.5789 15.1838 10.5789 9.02035C10.5789 4.27921 8.84211 0.0121766 4.57895 0.0121763C2.05263 0.012176 -7.56245e-07 2.06666 -9.63299e-07 4.43724C-1.47403e-06 10.2847 6.31579 7.91408 6.31579 12.8133C6.31579 16.6062 3.94737 18.5026 0.789473 19.1348L0.789473 21.0312Z" fill="white"/>
</svg>
